<?xml version="1.0" encoding="utf-8"?><svg xmlns="http://www.w3.org/2000/svg" xmlns:xlink="http://www.w3.org/1999/xlink"><symbol viewBox="0 0 1792 1792" id="arrow-down" xmlns="http://www.w3.org/2000/svg"><path d="M1675 832q0 53-37 90l-651 652q-39 37-91 37-53 0-90-37L155 922q-38-36-38-90 0-53 38-91l74-75q39-37 91-37 53 0 90 37l294 294V256q0-52 38-90t90-38h128q52 0 90 38t38 90v704l294-294q37-37 90-37 52 0 91 37l75 75q37 39 37 91z"/></symbol><symbol viewBox="0 0 1792 1792" id="arrow-up" xmlns="http://www.w3.org/2000/svg"><path d="M1675 971q0 51-37 90l-75 75q-38 38-91 38-54 0-90-38l-294-293v704q0 52-37.5 84.5T960 1664H832q-53 0-90.5-32.5T704 1547V843l-294 293q-36 38-90 38t-90-38l-75-75q-38-38-38-90 0-53 38-91l651-651q35-37 90-37 54 0 91 37l651 651q37 39 37 91z"/></symbol><symbol viewBox="0 0 1792 1792" id="filter" xmlns="http://www.w3.org/2000/svg"><path d="M1595 295q17 41-14 70l-493 493v742q0 42-39 59-13 5-25 5-27 0-45-19l-256-256q-19-19-19-45V858L211 365q-31-29-14-70 17-39 59-39h1280q42 0 59 39z"/></symbol><symbol viewBox="0 0 1792 1792" id="tag" xmlns="http://www.w3.org/2000/svg"><path d="M576 448q0-53-37.5-90.5T448 320t-90.5 37.5T320 448t37.5 90.5T448 576t90.5-37.5T576 448zm1067 576q0 53-37 90l-491 492q-39 37-91 37-53 0-90-37L219 890q-38-37-64.5-101T128 672V256q0-52 38-90t90-38h416q53 0 117 26.5T891 219l715 714q37 39 37 91z"/></symbol></svg>